{"title":"After.Earth.2013.CAM.XViD-VAiN","uid":8563163,"size":1287157672,"categoryP":"video","categoryS":"movies","magnet":"?xt=urn:btih:77237896963f935b6b1de4e52f6c8a75801debae&amp;dn=After.Earth.2013.CAM.XViD-VAiN&amp;tr=udp%3A%2F%2Ftracker.openbittorrent.com%3A80&amp;tr=udp%3A%2F%2Fopen.demonii.com%3A1337&amp;tr=udp%3A%2F%2Ftracker.coppersurfer.tk%3A6969&amp;tr=udp%3A%2F%2Fexodus.desync.com%3A6969","seeders":1,"leechers":0,"uploader":"xxxlavalxxx","files":5,"time":1370940541,"description":" &lt;a href=&quot;\nhttp://www.imdb.com/title/tt1815862/&quot; rel=&quot;nofollow&quot; target=&quot;_NEW&quot;&gt;\nhttp://www.imdb.com/title/tt1815862/&lt;/a&gt;\n\n\n\nOne thousand years after cataclysmic events forced humanity's escape from Earth, Nova Prime has become mankind's new home. Legendary General Cypher Raige returns from an extended tour of duty to his estranged family, ready to be a father to his 13-year-old son, Kitai. When an asteroid storm damages Cypher and Kitai's craft, they crash-land on a now unfamiliar and dangerous Earth. As his father lies dying in the cockpit, Kitai must trek across the hostile terrain to recover their rescue beacon. His whole life, Kitai has wanted nothing more than to be a soldier like his father. Today, he gets his chance.\n\n\n\nDirector:\n M. Night Shyamalan \n\nWriters:\n Gary Whitta (screenplay), M. Night Shyamalan (screenplay)\n\nStars:\n Jaden Smith, Will Smith, Sophie Okonedo \n\nGenres:\n  Action |  Adventure |  Sci-Fi \n\nCountry:\n USA \n\nLanguage:\n English \n\n\n\nT E C H N i C A L . i N F O . . .      \n\n Format                           : AVI\n Format/Info                      : Audio Video Interleave\n File size                        : 1.18 GiB\n Duration                         : 1h 33mn\n Overall bit rate                 : 1 803 Kbps\n Writing application              : VirtualDubMod 1.5.10.2 (build 2540/release)\n Writing library                  : VirtualDubMod build 2540/release\n\n Video\n ID                               : 0\n Format                           : MPEG-4 Visual\n Format profile                   : Advanced Simple@L5\n Format settings, BVOP            : 2\n Format settings, QPel            : No\n Format settings, GMC             : No warppoints\n Format settings, Matrix          : Default (MPEG)\n Muxing mode                      : Packed bitstream\n Codec ID                         : XVID\n Codec ID/Hint                    : XviD\n Duration                         : 1h 33mn\n Bit rate                         : 1 663 Kbps\n Width                            : 640 pixels\n Height                           : 330 pixels\n Display aspect ratio             : 1.939\n Frame rate                       : 29.970 fps\n Color space                      : YUV\n Chroma subsampling               : 4:2:0\n Bit depth                        : 8 bits\n Scan type                        : Progressive\n Compression mode                 : Lossy\n Bits/(Pixel*Frame)               : 0.263\n Stream size                      : 1.09 GiB (92%)\n Writing library                  : XviD 64\n\n Audio\n ID                               : 1\n Format                           : MPEG Audio\n Format version                   : Version 1\n Format profile                   : Layer 3\n Mode                             : Joint stereo\n Mode extension                   : MS Stereo\n Codec ID                         : 55\n Codec ID/Hint                    : MP3\n Duration                         : 1h 33mn\n Bit rate mode                    : Constant\n Bit rate                         : 128 Kbps\n Channel(s)                       : 2 channels\n Sampling rate                    : 48.0 KHz\n Compression mode                 : Lossy\n Stream size                      : 85.7 MiB (7%)\n Alignment                        : Aligned on interleaves\n Interleave, duration             : 33 ms (1.00 video frame)\n Interleave, preload duration     : 504 ms\n\n\n\n\n\n E N C O D E R S . N O T E S . . .       \n\n\n SOURCE......:  After Earth - Cam - HP - 2013 (NEW SOURCE)\n\n Thanks to all \n\n SAMPLE......: Yes 2 of em'\n ADDED NOTE..: it's a cam. don't have time to splain what i have done. look at the pic's below and or grab sample\n\n\n\nscreens\n\n\n    &lt;a href=&quot;\thttp://addpix.net/viewer.php?file=47261603647385687446.jpg&quot; rel=&quot;nofollow&quot; target=&quot;_NEW&quot;&gt;\thttp://addpix.net/viewer.php?file=47261603647385687446.jpg&lt;/a&gt;\n    &lt;a href=&quot;\thttp://addpix.net/viewer.php?file=99273769998822817798.jpg&quot; rel=&quot;nofollow&quot; target=&quot;_NEW&quot;&gt;\thttp://addpix.net/viewer.php?file=99273769998822817798.jpg&lt;/a&gt;\n    &lt;a href=&quot;\thttp://addpix.net/viewer.php?file=15212027136910200521.jpg&quot; rel=&quot;nofollow&quot; target=&quot;_NEW&quot;&gt;\thttp://addpix.net/viewer.php?file=15212027136910200521.jpg&lt;/a&gt;\n    &lt;a href=&quot;\thttp://addpix.net/viewer.php?file=64385476938136199558.jpg&quot; rel=&quot;nofollow&quot; target=&quot;_NEW&quot;&gt;\thttp://addpix.net/viewer.php?file=64385476938136199558.jpg&lt;/a&gt;\n    ","torrent":{"xt":"urn:btih:77237896963f935b6b1de4e52f6c8a75801debae","amp;dn":"After.Earth.2013.CAM.XViD-VAiN","amp;tr":["udp%3A%2F%2Ftracker.openbittorrent.com%3A80","udp%3A%2F%2Fopen.demonii.com%3A1337","udp%3A%2F%2Ftracker.coppersurfer.tk%3A6969","udp%3A%2F%2Fexodus.desync.com%3A6969"],"infoHash":"77237896963f935b6b1de4e52f6c8a75801debae","infoHashBuffer":{"type":"Buffer","data":[119,35,120,150,150,63,147,91,107,29,228,229,47,108,138,117,128,29,235,174]},"announce":[],"urlList":[]}}